<?xml version="1.0" standalone="no"?>
<!DOCTYPE svg PUBLIC "-//W3C//DTD SVG 20010904//EN"
 "http://www.w3.org/TR/2001/REC-SVG-20010904/DTD/svg10.dtd">
<svg version="1.0" xmlns="http://www.w3.org/2000/svg"
 width="511.000000pt" height="511.000000pt" viewBox="0 0 511.000000 511.000000"
 preserveAspectRatio="xMidYMid meet">
<metadata>
Created by potrace 1.11, written by Peter Selinger 2001-2013
</metadata>
<g transform="translate(0.000000,511.000000) scale(0.100000,-0.100000)"
fill="#000000" stroke="none">
<path d="M308 4703 c-15 -10 -32 -31 -38 -47 -7 -19 -10 -709 -10 -2078 l0
-2050 34 -34 34 -34 2212 0 2212 0 34 34 34 34 0 2050 c0 1378 -3 2059 -10
2079 -6 16 -24 37 -39 46 -27 16 -177 17 -2233 17 -2052 -1 -2205 -2 -2230
-17z m1277 -157 c166 -60 368 -259 575 -567 102 -153 123 -208 118 -319 -4
-102 -31 -165 -93 -216 -22 -18 -82 -68 -133 -110 -98 -81 -137 -133 -148
-201 -13 -81 2 -98 468 -545 236 -227 451 -425 477 -440 60 -36 126 -37 197
-4 39 18 76 52 166 153 146 163 174 178 323 177 121 -1 172 -20 337 -124 310
-197 520 -397 580 -553 15 -37 20 -75 20 -132 0 -149 -38 -212 -239 -399 -273
-255 -462 -350 -750 -377 -376 -35 -819 170 -1243 576 -52 50 -304 291 -560
535 -549 525 -607 583 -713 715 -302 376 -411 729 -326 1063 26 105 103 260
178 359 34 45 126 143 204 218 110 106 158 144 213 171 114 57 227 63 349 20z
m1351 -296 c63 -31 75 -57 90 -194 16 -141 41 -231 95 -341 151 -303 448 -495
811 -524 120 -10 159 -26 195 -81 46 -68 19 -163 -57 -203 -30 -16 -52 -18
-160 -13 -633 27 -1162 534 -1197 1147 -5 99 -4 109 17 147 26 46 85 82 134
82 16 0 49 -9 72 -20z m669 -14 c46 -35 56 -56 66 -137 11 -88 45 -155 109
-212 56 -50 112 -73 207 -83 34 -3 76 -15 92 -25 69 -42 92 -135 48 -199 -37
-55 -79 -74 -163 -72 -320 6 -597 273 -606 584 -3 81 20 124 82 156 57 30 116
25 165 -12z"/>
</g>
</svg>
