<?xml version="1.0" encoding="iso-8859-1"?>
<!-- Generator: Adobe Illustrator 19.0.0, SVG Export Plug-In . SVG Version: 6.00 Build 0)  -->
<svg version="1.1" id="Layer_1" fill="white" xmlns="http://www.w3.org/2000/svg" xmlns:xlink="http://www.w3.org/1999/xlink" x="0px" y="0px"
	 viewBox="0 0 511.64 511.64" style="enable-background:new 0 0 511.64 511.64;" xml:space="preserve">
<g transform="translate(0 -1)">
	<g>
		<g>
			<path d="M504.973,377.258c-19.435-36.736-81.472-73.813-88.704-78.059c-14.421-8.213-29.717-10.731-42.987-7.019
				c-10.432,2.88-18.965,9.301-24.789,18.624c-8.128,9.685-18.176,21.077-20.288,22.933c-16.405,11.115-27.179,9.941-41.323-4.203
				L183.096,225.728c-14.336-14.336-15.403-24.747-4.757-40.512c2.432-2.88,13.824-12.949,23.488-21.077
				c9.323-5.824,15.723-14.357,18.624-24.768c3.691-13.333,1.216-28.608-7.147-43.221c-4.096-6.997-41.216-69.056-77.909-88.491
				C113.187-4.075,86.307-0.043,68.557,17.728L45.645,40.64C4.195,82.069-46.237,170.645,81.421,298.304L214.328,431.21
				c61.141,61.141,113.301,81.429,155.627,81.429c46.059,0,80.448-24.043,102.037-45.632l22.912-22.933
				C512.675,426.325,516.728,399.466,504.973,377.258z"/>
			<path d="M447.578,150.393c11.797,0,21.333-9.557,21.333-21.333s-9.536-21.333-21.333-21.333
				c-23.531,0-42.667-19.136-42.667-42.667c0-11.776-9.536-21.333-21.333-21.333c-11.797,0-21.333,9.557-21.333,21.333
				C362.245,112.121,400.517,150.393,447.578,150.393z"/>
			<path d="M447.578,235.727c11.797,0,21.333-9.557,21.333-21.333s-9.536-21.333-21.333-21.333c-70.592,0-128-57.408-128-128
				c0-11.776-9.536-21.333-21.333-21.333c-11.797,0-21.333,9.557-21.333,21.333C276.911,159.161,353.477,235.727,447.578,235.727z"
				/>
		</g>
	</g>
</g>
<g>
</g>
<g>
</g>
<g>
</g>
<g>
</g>
<g>
</g>
<g>
</g>
<g>
</g>
<g>
</g>
<g>
</g>
<g>
</g>
<g>
</g>
<g>
</g>
<g>
</g>
<g>
</g>
<g>
</g>
</svg>
